<?xml version="1.0" standalone="no"?>
<!DOCTYPE svg PUBLIC "-//W3C//DTD SVG 20010904//EN"
 "http://www.w3.org/TR/2001/REC-SVG-20010904/DTD/svg10.dtd">
<svg version="1.0" xmlns="http://www.w3.org/2000/svg"
 width="512.000000pt" height="512.000000pt" viewBox="0 0 512.000000 512.000000"
 preserveAspectRatio="xMidYMid meet">
<metadata>
Created by potrace 1.13, written by Peter Selinger 2001-2015
</metadata>
<g transform="translate(0.000000,512.000000) scale(0.100000,-0.100000)"
fill="#000000" stroke="none">
<path d="M2405 4203 c-70 -4 -99 -16 -114 -49 -7 -16 -8 -100 -4 -264 l6 -240
-30 0 -29 0 12 98 c19 142 18 169 -9 196 -36 36 -240 61 -287 36 -29 -16 -36
-55 -86 -450 -25 -201 -48 -367 -50 -369 -2 -2 -4 11 -4 30 -1 19 -13 200 -29
403 l-28 369 -29 25 c-28 24 -31 25 -143 18 -187 -11 -183 -3 -160 -318 10
-128 20 -259 22 -290 l5 -58 -104 0 c-86 0 -106 -3 -111 -16 -5 -13 40 -485
205 -2141 15 -152 32 -277 39 -284 8 -8 287 -11 1029 -11 873 0 1020 2 1029
15 12 17 250 2399 242 2421 -5 13 -27 16 -130 16 l-124 0 -6 212 c-4 116 -7
271 -7 344 0 128 -1 134 -26 163 l-26 31 -114 0 c-119 0 -165 -12 -178 -45 -3
-9 -6 -74 -6 -145 0 -122 -1 -129 -21 -135 -11 -4 -27 -21 -34 -38 -13 -30
-14 -28 -12 46 2 74 0 80 -25 102 -23 20 -42 24 -132 30 -185 13 -185 13 -199
-240 l-10 -183 -36 5 c-20 3 -37 6 -38 7 0 1 -6 150 -12 331 l-10 330 -31 28
c-32 29 -33 29 -195 20z m129 -370 c4 -148 8 -283 11 -300 3 -31 2 -33 -26
-33 -17 0 -43 -7 -59 -15 -27 -14 -33 -25 -43 -80 -5 -31 -16 176 -23 448 l-7
247 70 0 71 0 6 -267z m870 80 c3 -42 6 -103 6 -136 0 -49 -3 -58 -15 -53 -9
3 -40 13 -69 21 l-53 16 -7 61 c-3 33 -6 82 -6 109 0 53 2 54 96 58 l41 1 7
-77z m-1713 -530 c21 -284 36 -519 34 -521 -6 -6 -64 77 -91 129 -60 119 -64
138 -89 469 -13 173 -27 343 -30 377 l-5 62 67 3 c38 2 70 2 72 1 2 -1 21
-235 42 -520z m412 492 c54 -7 53 -2 36 -137 -10 -76 -14 -88 -31 -88 -31 0
-73 -27 -86 -55 -9 -19 -11 -67 -7 -158 2 -73 7 -284 10 -470 l6 -338 -58 30
c-32 16 -68 37 -81 47 l-23 19 71 570 c40 314 73 575 75 582 2 6 12 10 22 8
10 -2 39 -7 66 -10z m884 -157 c-4 -46 -12 -184 -18 -308 l-11 -225 -76 -295
c-71 -278 -84 -321 -97 -309 -4 5 40 822 61 1127 l6 92 70 0 71 0 -6 -82z
m296 -70 c26 -6 47 -15 47 -18 0 -13 -230 -885 -239 -905 -9 -20 -144 -100
-159 -93 -6 2 241 967 263 1027 3 8 12 10 23 6 9 -3 38 -11 65 -17z m-1019
-425 c3 -175 8 -394 10 -487 l4 -168 -49 6 c-28 4 -61 11 -74 16 l-25 10 0
207 c0 115 -3 326 -7 471 l-6 262 70 0 71 0 6 -317z m1130 -108 c-31 -79 -90
-185 -129 -230 -32 -37 -39 -72 62 315 l78 295 8 -155 c8 -154 8 -156 -19
-225z m-737 188 c-4 -49 -13 -223 -22 -388 -9 -165 -18 -315 -21 -332 l-5 -33
-69 0 -70 0 5 58 c3 31 12 183 20 337 8 154 18 317 21 363 l6 82 71 0 70 0 -6
-87z"/>
</g>
</svg>
