<?xml version="1.0" encoding="utf-8"?>
<!-- Svg Vector Icons : http://www.onlinewebfonts.com/icon -->
<!DOCTYPE svg PUBLIC "-//W3C//DTD SVG 1.1//EN" "http://www.w3.org/Graphics/SVG/1.1/DTD/svg11.dtd">
<svg version="1.1" xmlns="http://www.w3.org/2000/svg" xmlns:xlink="http://www.w3.org/1999/xlink" x="0px" y="0px" viewBox="0 0 1000 1000" enable-background="new 0 0 1000 1000" xml:space="preserve">
<metadata> Svg Vector Icons : http://www.onlinewebfonts.com/icon </metadata>
<g><g transform="translate(0.000000,511.000000) scale(0.100000,-0.100000)"><path d="M5889.3,4352c-42.1-21-176-110.9-296.5-200.8c-355.7-260.1-571.9-344.3-782.2-298.4c-139.6,30.6-218,74.6-411.2,239.1c-225.7,191.3-307.9,229.5-480.1,229.5c-248.6,0-577.6-137.7-994.5-413.1c-374.9-246.7-545.1-470.5-545.1-715.3c0-145.4,32.5-237.2,156.8-430.3c49.7-80.3,91.8-162.6,91.8-185.5c0-45.9-15.3-49.7-351.9-99.5l-231.4-34.4l-631.1,361.5l-631.1,361.5l-55.5-110.9c-76.5-149.2-154.9-386.3-185.5-558.5c-36.3-208.5-28.7-566.1,17.2-776.5c36.3-164.5,156.8-491.5,197-531.7c9.6-11.5,17.2-30.6,17.2-44c0-19.1-72.7-24.9-336.6-24.9H100l9.6-644.5c5.7-449.4,19.1-707.6,40.2-843.4c168.3-1094,635-2027.3,1398.1-2786.6c254.4-254.4,457.1-420.8,768.9-627.3c206.6-135.8,235.2-162.6,235.2-208.5c0-30.6,23-78.4,55.5-114.7l55.5-63.1H5000h2337.2l55.5,63.1c34.4,38.2,55.5,82.2,55.5,116.7c0,47.8,19.1,66.9,145.4,145.4c1088.3,679,1899.2,1816.9,2178.4,3058.2c93.7,420.8,109,577.6,118.6,1260.4l9.6,644.5h-300.3c-290.7,0-300.3,1.9-275.4,36.3c158.8,216.1,363.4,543.2,430.3,680.9c141.5,292.6,170.2,468.6,105.2,638.8c-53.5,143.4-126.2,223.8-258.2,288.8c-225.7,110.9-491.5,118.6-996.4,28.7c-294.5-51.6-365.3-57.4-382.5-28.7c-7.7,11.5,23,95.6,65,187.4c154.9,338.5,153,478.1-3.8,648.4c-135.8,147.3-399.7,250.5-837.7,330.9c-562.3,101.4-876,61.2-1136.1-147.3l-95.6-74.6V3958c0,281.2-21,359.6-107.1,403.6C6034.7,4399.8,5979.2,4397.9,5889.3,4352z M4162.3,3759.1c342.3-296.4,644.5-382.5,1013.7-288.8c168.3,44,338.5,124.3,508.7,242.9l118.6,82.2v-57.4c0-103.3-40.2-426.5-57.4-470.5c-24.9-59.3-181.7-101.4-380.6-101.4c-172.1,0-311.8,26.8-566.1,107.1c-84.2,26.8-195.1,57.4-246.7,66.9c-176,32.5-321.3-44-348.1-187.4c-26.8-139.6,59.3-495.4,244.8-1015.6c53.5-149.2,93.7-275.4,89.9-279.2c-3.8-3.8-61.2-34.4-126.2-68.9c-177.9-91.8-330.9-241-459-438c-1.9-3.8-300.3,164.5-663.7,373c-363.4,208.5-654.1,384.4-646.5,392.1c7.7,5.7,51.6,21,95.6,34.4c122.4,34.4,242.9,162.6,281.2,298.4c49.7,168.3,13.4,300.3-153,552.7c-112.8,170.2-105.2,241,44,386.3c143.4,143.4,635,434.2,833.9,497.3c44,13.4,114.8,24.9,158.7,24.9C3976.8,3912.1,3997.8,3898.7,4162.3,3759.1z M7276,3548.7c374.9-61.2,690.4-166.4,703.8-237.2c3.8-19.1-30.6-112.8-74.6-210.4c-74.6-156.8-82.3-189.3-84.2-319.4c0-128.1,5.7-154.9,57.4-237.2c40.2-63.1,89.9-109,158.7-149.2c130.1-72.7,263.9-74.6,577.6-11.5c168.3,34.4,285,44,503,45.9h285l45.9-55.5c38.3-42.1,45.9-66.9,36.3-114.8c-38.3-179.8-307.9-633.1-589.1-988.8l-118.6-151.1h-260.1h-260.1v197c-1.9,286.9-86.1,514.5-258.2,694.3c-47.8,51.6-53.5,66.9-36.3,99.4c11.5,21,21,66.9,21,99.5c0,86.1-107.1,191.3-195.1,191.3c-61.2,0-137.7-38.3-177.9-89.9c-15.3-19.1-36.3-19.1-112.9,3.8c-107.1,32.5-363.4,36.3-489.6,7.6c-137.7-30.6-353.8-147.3-453.3-242.9c-124.3-118.6-206.6-242.9-267.8-399.7c-44-112.8-51.6-160.7-51.6-344.3c-1.9-189.3-5.7-216.1-34.4-216.1c-21,0-61.2,53.5-114.8,158.7c-114.7,221.9-313.7,418.9-531.7,527.9c-168.3,82.2-369.1,135.8-516.4,135.8h-86.1l-99.5,275.4c-97.5,267.8-221.9,663.7-212.3,671.3c3.8,3.8,74.6-15.3,158.7-40.2c514.5-156.8,916.1-122.4,1258.5,107.1c135.8,91.8,187.4,139.6,422.7,411.2c153,174,214.2,200.8,470.5,200.8C7061.7,3567.8,7207.1,3558.3,7276,3548.7z M1276.2,2412.7l262-149.2v-128.1c0-460.9,332.8-874,795.6-985c105.2-24.9,76.5-26.8-470.5-28.7l-583.3-1.9l-80.3,120.5c-176,265.9-254.4,503-267.8,822.4c-11.5,241,21,516.4,59.3,506.8C1002.7,2565.7,1130.9,2496.8,1276.2,2412.7z M2226.8,1865.7c556.6-319.4,562.3-325.1,330.9-325.1c-239.1,0-472.4,147.3-560.4,355.7c-51.6,118.6-47.8,132,24.9,88C2054.6,1963.2,2148.4,1909.6,2226.8,1865.7z M7513.1,1877.1c114.7-57.4,218-158.8,281.1-283.1c49.7-95.6,70.8-338.5,38.3-420.8l-21-53.5h-573.8h-573.8l-13.4,53.5c-26.8,99.5-13.4,298.4,28.7,390.2c45.9,103.3,177.9,254.4,260.1,296.5C7124.9,1957.5,7337.2,1963.2,7513.1,1877.1z M5135.8,1521.4c166.4-32.5,332.8-120.5,449.5-239.1c57.4-59.3,103.3-118.6,103.3-135.8c0-22.9-93.7-26.8-682.8-22.9c-493.4,3.8-682.8,11.5-688.5,28.7c-15.3,42.1,198.9,233.3,325.1,294.5C4831.7,1534.8,4961.7,1553.9,5135.8,1521.4z M3454.6,1154.2c42.1-32.5,24.9-34.4-376.8-32.5c-405.5,1.9-416.9,1.9-307.9,28.7c112.8,26.8,348.1,132,367.2,164.5C3146.7,1330.1,3372.4,1217.3,3454.6,1154.2z M9494.5,517.3V316.5H5000H505.5v200.8v200.8H5000h4494.5V517.3z M740.7-178.9C800-307,962.6-339.5,1062-240.1c30.6,30.6,55.5,74.6,55.5,95.6c0,38.3,9.6,40.2,210.4,40.2s210.4-1.9,210.4-40.2c0-21,24.9-65,55.5-95.6c99.5-99.4,283.1-61.2,329,68.9l24.9,66.9h197h197l26.8-65c34.4-82.2,97.5-126.2,183.6-126.2s149.2,44,183.6,126.2l26.8,65h197l195.1-1.9l34.4-72.7c59.3-128.2,221.9-160.6,321.3-61.2c30.6,30.6,55.5,74.6,55.5,95.6c0,38.3,9.6,40.2,210.4,40.2c200.8,0,210.4-1.9,210.4-40.2c0-21,24.9-65,55.5-95.6c101.4-99.4,283.1-61.2,329,68.9l24.9,68.8l202.7-5.7c191.3-5.7,200.8-7.7,206.6-47.8c9.6-66.9,110.9-139.6,193.2-139.6c88,0,151.1,44,185.5,126.2l26.8,65h197h197l24.8-66.9c45.9-130,229.5-168.3,329-68.9c30.6,30.6,55.5,74.6,55.5,95.6c0,38.3,9.6,40.2,210.4,40.2s210.4-1.9,210.4-40.2c0-21,24.9-65,55.5-95.6c99.4-99.4,262-66.9,321.3,61.2l34.4,72.7l195.1,1.9c193.2,0,197,0,208.5-47.8c19.1-74.6,112.9-143.4,197-143.4c88,0,151.1,44,185.5,126.2l26.8,65h197h197l24.9-66.9c45.9-130,229.5-168.3,329-68.9c30.6,30.6,55.5,74.6,55.5,95.6c0,38.3,9.6,40.2,210.4,40.2s210.4-1.9,210.4-40.2c0-21,24.9-65,55.5-95.6c99.4-99.4,262-66.9,321.3,61.2c32.5,70.8,38.3,72.7,126.2,74.6c78.4,0,91.8-5.7,82.2-32.5c-3.8-19.1-13.4-86.1-21-149.2c-45.9-409.3-210.4-950.5-420.8-1377c-430.3-874.1-1113.1-1574-1956.6-2006.3L6859-3776.4H5000H3141l-202.7,105.2C2083.3-3235.1,1406.3-2540.9,974-1663C763.7-1236.5,599.2-695.3,553.3-286c-7.6,63.1-17.2,130-21,149.2c-9.6,26.8,3.8,32.5,82.2,32.5C702.5-106.2,708.2-108.1,740.7-178.9z"/></g></g>
</svg>